<svg width="25" height="22" viewBox="0 0 25 22" fill="none" xmlns="http://www.w3.org/2000/svg">
<path d="M23.4536 8.9198L20.8074 1.41211H4.19204L1.60742 8.73519V20.4275H23.4536V8.9198ZM4.86896 2.33519H20.1305L22.2843 8.42749H2.71511L4.86896 2.33519ZM22.469 19.566H2.5305V9.35057H22.5305L22.469 19.566Z" fill="#111111" stroke="#111111" stroke-width="0.692308" stroke-linejoin="round"/>
<path d="M16.1899 12.0578L16.0973 11.9587C15.8362 11.6794 15.3981 11.6647 15.1188 11.9259C15.1155 11.929 15.1123 11.9321 15.109 11.9352L11.1498 15.7845L9.89055 14.5602C9.6164 14.2937 9.1781 14.2998 8.91157 14.574C8.90844 14.5772 8.90534 14.5804 8.90228 14.5837L8.80968 14.6828C8.55212 14.9582 8.56238 15.3891 8.83276 15.652L10.6672 17.4355C10.9359 17.6967 11.3637 17.6967 11.6324 17.4355L16.1668 13.027C16.4372 12.7641 16.4475 12.3332 16.1899 12.0578Z" fill="#111111"/>
<path d="M12.9612 2.48926H12.0381V8.02772H12.9612V2.48926Z" fill="#D8D8D8" stroke="black" stroke-width="0.923077"/>
</svg>
