<svg width="16" height="16" viewBox="0 0 16 16" fill="none" xmlns="http://www.w3.org/2000/svg">
<path d="M14.9388 14.2176L12.1563 11.4576C13.2364 10.1109 13.7594 8.40152 13.6179 6.68103C13.4764 4.96053 12.6811 3.35964 11.3954 2.20753C10.1098 1.05543 8.43166 0.439683 6.70599 0.486903C4.98033 0.534124 3.33834 1.24072 2.11766 2.46141C0.896972 3.68209 0.190374 5.32408 0.143153 7.04974C0.0959329 8.77541 0.71168 10.4536 1.86378 11.7392C3.01589 13.0248 4.61678 13.8201 6.33728 13.9617C8.05777 14.1032 9.76711 13.5801 11.1138 12.5001L13.8738 15.2601C13.9435 15.3303 14.0265 15.3861 14.1179 15.4242C14.2093 15.4623 14.3073 15.4819 14.4063 15.4819C14.5053 15.4819 14.6033 15.4623 14.6947 15.4242C14.7861 15.3861 14.8691 15.3303 14.9388 15.2601C15.074 15.1202 15.1495 14.9333 15.1495 14.7388C15.1495 14.5443 15.074 14.3574 14.9388 14.2176ZM6.9063 12.5001C5.86795 12.5001 4.85291 12.1921 3.98956 11.6153C3.1262 11.0384 2.45329 10.2185 2.05593 9.25914C1.65857 8.29983 1.55461 7.24423 1.75718 6.22583C1.95975 5.20743 2.45976 4.27197 3.19399 3.53774C3.92822 2.80351 4.86368 2.3035 5.88208 2.10093C6.90048 1.89836 7.95608 2.00232 8.91539 2.39968C9.8747 2.79704 10.6946 3.46995 11.2715 4.33331C11.8484 5.19666 12.1563 6.2117 12.1563 7.25005C12.1563 8.64244 11.6032 9.97779 10.6186 10.9624C9.63404 11.9469 8.29869 12.5001 6.9063 12.5001Z" fill="#757575"/>
</svg>
