<svg width="10" height="12" viewBox="0 0 10 12" fill="none" xmlns="http://www.w3.org/2000/svg">
<path d="M1.01136 2.62775V10.5532C1.01132 10.6257 1.03034 10.6968 1.06653 10.7596C1.10271 10.8223 1.15478 10.8744 1.2175 10.9107C1.28022 10.9469 1.35137 10.966 1.4238 10.966C1.49623 10.966 1.56739 10.947 1.63011 10.9107L9.04796 6.6279C9.1108 6.59173 9.16299 6.53964 9.19928 6.47688C9.23557 6.41411 9.25467 6.3429 9.25467 6.2704C9.25467 6.1979 9.23557 6.12668 9.19928 6.06392C9.16299 6.00116 9.1108 5.94907 9.04796 5.9129L1.63066 1.63115L0.805664 1.1543" fill="white"/>
<path d="M1.01136 2.62775V10.5532C1.01132 10.6257 1.03034 10.6968 1.06653 10.7596C1.10271 10.8223 1.15478 10.8744 1.2175 10.9107C1.28022 10.9469 1.35137 10.966 1.4238 10.966C1.49623 10.966 1.56739 10.947 1.63011 10.9107L9.04796 6.6279C9.1108 6.59173 9.16299 6.53964 9.19928 6.47688C9.23557 6.41411 9.25467 6.3429 9.25467 6.2704C9.25467 6.1979 9.23557 6.12668 9.19928 6.06392C9.16299 6.00116 9.1108 5.94907 9.04796 5.9129L1.63066 1.63115L0.805664 1.1543" stroke="white" stroke-width="0.825"/>
</svg>
